<?xml version="1.0" encoding="UTF-8" standalone="no"?>
<!-- Generated by IcoMoon.io -->

<svg
   version="1.1"
   width="38.323284"
   height="32.665859"
   viewBox="0 0 38.323284 32.665859"
   id="svg1"
   xmlns="http://www.w3.org/2000/svg"
   xmlns:svg="http://www.w3.org/2000/svg">
  <defs
     id="defs1" />
  <g
     id="SVGRepo_iconCarrier"
     transform="matrix(0.048344,0,0,0.048344,-1.6607666e-7,7.9144569)">        <g
   id="g1">
  <path
     d="m 12.596878,18.898222 8.383428,-3.703922 -8.405287,7.843983 c -0.130343,-1.434733 0.525457,-2.792251 0.02186,-4.138016 z m 12.681786,-7.293311 c -5.372701,-0.2577 -10.752314,0.451997 -15.8909896,2.094321 1.0782926,1.170898 1.9808196,2.500301 2.6700576,3.949351 4.256885,-2.454283 12.537282,-5.375958 13.220932,-6.033446 l 1.442777,-2.9359878 z m -13.243643,0.30065 0.218226,-0.06545 C 13.873648,11.33903 15.464425,10.732618 17.01768,10.03417 18.588709,9.3960565 20.067905,8.5288765 21.397996,7.4520599 22.814983,6.2862756 23.878464,4.7257608 24.46797,2.9556093 24.594363,2.6641632 24.690146,2.3563552 24.749393,2.0424115 22.617494,5.0529985 10.784195,7.1635871 10.784195,7.1635871 l 5.38033,-3.688488 C 10.365247,3.4955515 4.5096199,6.4250624 -0.19852904,9.9387774 2.9929008,10.289535 6.1913073,10.647741 8.5740178,12.870912 9.7174818,12.504815 10.886619,12.243025 12.035021,11.911696 Z"
     id="path1"
     style="fill:#d4aa00;stroke-width:1.00488"
     transform="matrix(20.68509,0,0,20.68509,239.98519,-205.95872)" />
  <path
     style="fill:#e82135"
     d="M 491.859,156.348 C 478.968,125.865 460.517,98.483 437.017,74.976 413.501,51.476 386.113,33.016 355.644,20.126 324.084,6.775 290.553,0.001 255.992,0.001 221.438,0.001 187.909,6.774 156.347,20.126 125.864,33.016 98.482,51.477 74.974,74.976 51.475,98.483 33.015,125.865 20.124,156.348 6.774,187.91 0,221.44 0,255.993 c 0,34.56 6.773,68.091 20.125,99.652 12.89,30.469 31.351,57.857 54.85,81.357 23.507,23.516 50.889,41.967 81.373,54.857 31.562,13.344 65.091,20.125 99.645,20.125 34.561,0 68.092,-6.781 99.652,-20.125 30.469,-12.891 57.857,-31.342 81.373,-54.857 23.5,-23.5 41.951,-50.889 54.842,-81.357 13.344,-31.561 20.125,-65.092 20.125,-99.652 -0.001,-34.553 -6.782,-68.083 -20.126,-99.645 z"
     id="path1-5" />
  <path
     style="fill:#ededed"
     d="m 0.102,263.18 c 0.875,32.014 7.593,63.092 20.023,92.465 12.89,30.469 31.351,57.857 54.85,81.357 23.507,23.516 50.889,41.967 81.373,54.857 31.562,13.344 65.091,20.125 99.645,20.125 34.561,0 68.092,-6.781 99.652,-20.125 30.469,-12.891 57.857,-31.342 81.373,-54.857 23.5,-23.5 41.951,-50.889 54.842,-81.357 12.438,-29.373 19.156,-60.451 20.031,-92.465 z"
     id="path2" />
  <path
     style="fill:#434a54"
     d="m 510.765,281.211 c 0.812,-8.344 1.219,-16.75 1.219,-25.218 0,-9.516 -0.516,-18.953 -1.531,-28.289 -12.719,1.961 -30.984,4.516 -53.998,7.054 -43.688,4.82 -113.904,10.57 -200.463,10.57 -86.552,0 -156.776,-5.75 -200.455,-10.57 C 32.515,232.219 14.257,229.665 1.539,227.704 0.516,237.04 0,246.478 0,255.993 c 0,8.468 0.406,16.875 1.219,25.218 41.53,6.25 133.027,17.436 254.773,17.436 121.746,0 213.242,-11.186 254.773,-17.436 z"
     id="path3" />
  <path
     style="fill:#ededed"
     d="m 309.334,266.656 c 0,29.459 -23.891,53.334 -53.342,53.334 -29.452,0 -53.334,-23.875 -53.334,-53.334 0,-29.453 23.882,-53.327 53.334,-53.327 29.451,0.001 53.342,23.875 53.342,53.327 z"
     id="path4" />
  <path
     style="fill:#434a54"
     d="m 255.992,170.66 c -52.936,0 -95.997,43.069 -95.997,95.997 0,52.928 43.062,95.988 95.997,95.988 52.935,0 95.996,-43.061 95.996,-95.988 0,-52.928 -43.06,-95.997 -95.996,-95.997 z m 0,138.675 c -23.522,0 -42.663,-19.156 -42.663,-42.678 0,-23.523 19.14,-42.663 42.663,-42.663 23.531,0 42.654,19.14 42.654,42.663 0,23.521 -19.123,42.678 -42.654,42.678 z"
     id="path5" />
  <path
     style="opacity:0.2;fill:#ffffff;enable-background:new"
     d="M 491.859,156.348 C 478.968,125.865 460.517,98.483 437.017,74.976 413.501,51.476 386.113,33.016 355.644,20.126 324.084,6.775 290.553,0.001 255.992,0.001 c -3.57,0 -7.125,0.078 -10.664,0.219 30.789,1.25 60.662,7.93 88.974,19.906 30.498,12.89 57.873,31.351 81.371,54.85 23.5,23.507 41.969,50.889 54.857,81.372 13.359,31.562 20.109,65.092 20.109,99.646 0,34.56 -6.75,68.091 -20.109,99.652 -12.889,30.469 -31.357,57.857 -54.857,81.357 -23.498,23.516 -50.873,41.967 -81.371,54.857 -28.312,11.969 -58.186,18.656 -88.974,19.906 3.539,0.141 7.093,0.219 10.664,0.219 34.561,0 68.092,-6.781 99.652,-20.125 30.469,-12.891 57.857,-31.342 81.373,-54.857 23.5,-23.5 41.951,-50.889 54.842,-81.357 13.344,-31.561 20.125,-65.092 20.125,-99.652 0,-34.554 -6.781,-68.084 -20.125,-99.646 z"
     id="path6" />
  <path
     style="opacity:0.1;enable-background:new"
     d="m 20.125,355.645 c 12.89,30.469 31.351,57.857 54.85,81.357 23.507,23.516 50.889,41.967 81.373,54.857 31.562,13.344 65.091,20.125 99.645,20.125 3.57,0 7.125,-0.078 10.664,-0.219 -30.789,-1.25 -60.67,-7.938 -88.982,-19.906 -30.483,-12.891 -57.857,-31.342 -81.364,-54.857 -23.507,-23.5 -41.96,-50.889 -54.858,-81.357 -13.352,-31.56 -20.117,-65.091 -20.117,-99.652 0,-34.554 6.765,-68.084 20.116,-99.646 C 54.35,125.864 72.803,98.481 96.31,74.983 119.817,51.476 147.191,33.015 177.674,20.125 205.986,8.149 235.867,1.469 266.656,0.219 263.117,0.079 259.562,0.001 255.992,0.001 221.438,0.001 187.909,6.774 156.347,20.126 125.864,33.016 98.482,51.477 74.974,74.984 51.475,98.483 33.015,125.865 20.124,156.348 6.774,187.91 0,221.44 0,255.993 c 0,34.56 6.774,68.092 20.125,99.652 z"
     id="path7" />
  <path
     style="opacity:0.2;fill:#ffffff;stroke-width:0.443445;enable-background:new"
     d="m 303.60779,-46.005682 c -18.25059,12.030074 -40.30423,26.577826 -46.38695,30.004583 2.7366,0 -23.33606,15.21601195 -20.62321,15.17984195 7.99161,6.15956715 44.4591,-3.96007495 37.10134,2.50504945 45.28485,-30.8799094 55.65958,-41.7385254 97.30843,-66.7645384 48.28509,-29.013609 70.21338,-38.638334 82.21063,-44.237874 18.01247,-6.03256 38.84226,-12.46827 62.22059,-15.77494 21.70264,-3.07041 34.92792,-7.084 58.52857,-7.40467 -9.83839,-3.2411 -1.24188,-1.37854 -3.97922,-1.37854 -26.49284,0 -47.44062,3.06278 -70.90002,7.85645 -23.35611,3.30692 -44.20495,10.66937 -62.23121,16.70167 -31.60987,10.37675 -55.60712,22.724722 -79.33209,33.126215 -8.11819,3.559176 -40.05138,22.706496 -40.05138,22.706496 z"
     id="path6-2" />
</g>
</g>
</svg>
